<svg xmlns:xlink="http://www.w3.org/1999/xlink" xmlns="http://www.w3.org/2000/svg" class="fill-black lg:h-44 md:h-28 h-20" viewBox="0 0 850 360" width="850"  height="360" >
                <path d="M517.5,248C493.2,211.8,488.9,98.1,548,98.6c7.4,0.1,14.7,2.5,20.4,7.3c20.5,17.2-1.4,39.2-14.2,21.6 c-3.8-5.2-10.5-4-14.5,0.2c-17.4,18.5-17,86.5,4.2,109.2c4.5,4.8,11.3,7.3,17.6,4.6c0,0,0,0,0,0c1.8-0.6,3.2-2.1,3.9-3.9l2-4.9 c0.3-0.8,0.7-1.5,1.1-2.2c4.2-6.3,13.4-7.8,19.7-2.5C609.8,245.8,557.4,302.1,517.5,248z M312.2,267.6c-2.6-6.9-4.9-15.6-6.1-20.3 c-1-4.1-1.5-8.3-1.5-12.5c0-4.9,0.5-9.9,0.2-14.9c-0.2-11.1-14.1-17.4-22.1-9.1c-7.3,8.4-0.3,20.8-11.2,29.2 c-17.1,13.2-36.8-2.7-37.8-23.1c-1-20.9,5-38.5,21.4-46.5c0.9-0.4,1.8-0.7,2.7-1c9.2-2.9,16.2,2,20.4,8.2c0.9,1.4,1.6,2.8,1.8,4 c0.4,2.8,0.5,3.2,0.5,3.2c2.3,10.3,18.6,11.8,21.5,0.5c5.2-55.1-70.2-45.9-86.2-7.7c-20.1,48,11.5,115.3,66.6,86.4 c2.8,10,6.8,19.5,11.9,28.4c1.3,2.3,3,4.4,5.2,6c13.8,10.6,28-6.4,17.1-22.2C315,273.4,313.4,270.6,312.2,267.6z M777.3,154.6 c-0.6-17.1-25.4-17.5-26.7-0.9c0,0.6-0.8,3.7-0.9,4.3c-3.3,50.7-19.4,69.6-19.4,69.6s-3.8-86.1-28.7-80.9c-6,1.3-9.4,5.6-9.8,12.9 c-1.6,27.6-7.8,69.2-41.6,91.3c-5.2,3.4-5.1,12.4,0,16.7c17.8,14.8,56.2-37,55.3-55.5c1.4,30.3-6.2,55.3,4.3,62.5 c15.5,10.7,57.4-35.9,65.7-89.4C777.7,170.8,778.1,164.8,777.3,154.6z M229.3,307.6c-4.6,5-13,6.9-19.1,0 c-21.7-24.5-44.6-48.1-71.9-66.1c-13.7,31.6-48,55-73.7,31.8c-7.5-6.8-12.6-15.8-14.1-25.8c-5.7-38.4,42.6-64.4,77.4-42.8 c12.5-27.9,20.6-57.6,24.6-87.9c-0.1,0.7,1.6-16.6,2.2-24.5c0.3-14.5,22.3-14.5,22.4,0c0.9,43.2-9,86.4-26.9,125.6 c2.5,1.7,5,3.4,7.4,5.1C173.4,235.4,248.2,287.1,229.3,307.6z M116,227.9c-1.5-0.8-8.5-4.9-16-5.4c-9-0.5-27.1,6.8-23.5,22.3 c0.6,2.4,1.5,4.4,2.9,6.5l0.5,0.7c12.5,12.9,25.3-4.7,31.3-15.9C112.8,233.4,114.4,230.7,116,227.9z M491.5,290.5 c-2.8-1.1-5.3-2.9-7.4-5.2c-6.3-7-11.9-14.8-16.3-23.1c-28,26-69.9,5.7-80.8-27.4c-7.8-19.4-8.3-42.7,0.3-62 c-2.4-12.6-4.7-25.2-7-37.9c-7,4.4-14.4,8.1-22.1,11.1c10.8,37.7,10.9,80.2-4.9,116.6c-6,11.6-25,3.5-21.2-8.9 c2.2-8.2,4.6-16.3,6.1-24.6c3.3-15.2,2.9-40.2,1.3-50.7c-1-8.6-3.1-17-5.5-25.3c-27.5,8-59.8-18-47.9-43.6c3.1-6.6,8.4-12,15.2-14.7 c18.9-7.4,41.1,7.4,47.8,26.6c0,0,0,0,0,0c9.8-4.1,20.7-10.3,29.3-17.7c1.2-1,2.5-2,3.9-2.8c24.5-13.7,22,31.9,26.7,46.5 c53.3-32.3,87.6,39.1,60.6,47.3c-2.8,0.9-5.8,0.7-8.4-0.7c-9.2-5.1-2.4-19.6-15.3-26.2c-10.4-6.5-23.7-1.2-30.4,8 c0.1-0.2-3.4,4.8-5.1,8.8c0-0.1,0.1-0.1,0.1-0.2c-9.3,22.7,2.3,69.2,33.6,61.2c-0.1,0.1-0.2,0.1-0.3,0.2c0.3-0.2,2.5-1,1.4-0.8 c1.1-0.6,2.2-1.1,3.2-1.7c-0.1,0.1-0.2,0.2-0.4,0.4c1.7-1.4,3.2-2.9,4.6-4.6c-0.1,0.1-0.2,0.2-0.4,0.3c3.1-4.6,4.3-10.5,3-15.9 c0,0,0,0,0,0c-3.4-16.1,21.2-24.3,25.4-7.8c0.1,0.5,0.4,1.7,0.5,2.2c2.5,14,7.6,27.4,15.2,39.5c0.5,0.9,1.6,2.4,2.4,3.6 c0.6,0.9,1.3,1.7,2.1,2.4C516.6,276,507.2,296.5,491.5,290.5z M326.3,128.9c-0.9-1.4-7-13.8-14.9-15.7c-3.5-0.5-5.2,1.7-5.5,5.2 C305.8,125,325.3,128.7,326.3,128.9z M588.4,143.6c39.9-42.8,108,10.3,75,60.7C622.3,260.5,540.6,195,588.4,143.6z M646.6,175 c-0.3-14.2-11-25.1-25.2-22c-12.8,2.8-21.5,12.1-22,25.2c-0.6,14.4,11.1,23.8,25.2,22C637.6,198.5,646.9,188.1,646.6,175z"></path>
                <path d="M431.1,359.4c-3.5,1.2-8.2,0.1-11.9-0.1c-1.8-0.1-3.4-1.5-3.4-3.4c0.1-13.5,0-26.9,1.2-40.3c0.2-2,2.9-2,3.1,0 c1.5,12.3,1.8,24.6,2.3,36.9c3.2,0,6.6,0,9.4,1.2C434.5,355,433.4,358.6,431.1,359.4z M380.7,325.6c0.8,5.4,0.8,10.9,0,16.3 c-0.9,6.2-3.9,21.7-13.7,17.3c-3.9-1.8-5.6-6.4-6.9-10.2c-1.7-4.9-2.5-10.2-2.4-15.4c0-3,0.5-6.9,1.6-10.3c0.5-2.9,1.6-5.7,4-7.9 c3.5-3.1,8.7-3.8,12.4-0.7C379,317.4,380.2,321.6,380.7,325.6z M374.3,325.2c-0.6-2.8-2.2-7.7-5.9-5.5c-3.6,2.1-3.5,7.6-3.7,11.2 c-0.1,1.4-0.9,2.2-1.8,2.5c0.1,2.2,0.3,4.2,0.6,5.8c0.6,4,1.8,8.1,3.7,11.7c0.6,1.1,1.5,3.1,3,2.8c1.2-0.3,2-2.4,2.3-3.4 C375.3,342.6,375.9,333.2,374.3,325.2z M409.3,323.7c-0.2-3.3-0.1-6.8-0.9-10c-0.7-2.7-5.5-3.1-5.9,0c-0.9,6.3,0.2,13.3,0.5,19.7 c0.1,1.6,0.2,3.3,0.2,4.9c-1.2-2.3-2.4-4.5-3.7-6.8c-1.7-3.2-3.5-6.3-5.4-9.5c-1.7-3-3.4-6.1-6.2-8.2c-0.3-0.2-0.6-0.2-1-0.1 c-0.7-0.1-1.4,0.3-1.5,1.1c-1.1,6.7-0.4,13.8-0.2,20.5c0.2,6.6,0.2,13.3,0.7,20c-0.1,0.4-0.1,0.8,0,1.2c0.1,0.4,0.2,0.7,0.2,1.1 c0.7,3.5,6.4,2.7,6.2-0.8c-0.2-7.1-1-14.3-1.6-21.4c-0.2-2.8-0.4-5.6-0.6-8.4c1.2,2.6,2.4,5.2,3.7,7.8c3.5,6.9,6.9,13.8,10.4,20.6 c1.6,3,6.7,1.7,6.5-1.8c-0.4-6.7-0.7-13.5-1.1-20.2C409.7,330.2,409.5,327,409.3,323.7z M507.9,353.1c-2.1-0.2-4.3,0.9-6.4,0.1 c-2.1-0.8-2.3-3.6-2.7-5.5c-0.7-3.1-1.1-6.3-1.4-9.5c1.4,0,2.8-0.1,4.2-0.2c2.2-0.2,4.3-0.1,5.9-1.7c1.2-1.2,1-3.4-0.5-4.2 c-2.1-1.1-3.9-0.4-6.1,0.1c-1.3,0.3-2.5,0.5-3.7,0.9c0-0.1,0-0.2,0-0.4c-0.1-4.1-0.4-9,1.1-13c0.8-2,2.3-3.9,4.3-4.7 c1.5-0.6,3.2-0.5,4.7-1c0.1,0,0.2-0.1,0.2-0.2c-0.3-5.3-8.2-3.3-10.7-1.2c-5.2,4.3-5.5,12.1-5.6,18.3c-0.1,7.3,0.2,15.8,2.7,22.7 c2.2,6.1,10,8.2,15.5,5C512,356.9,510.6,353.4,507.9,353.1z M481.1,312.2c-0.8-4.2-7.2-2.4-6.4,1.8c1.5,7.7,2.7,15.8,3.2,23.8 c-0.8-1.6-1.6-3.2-2.4-4.7c-3.4-6.6-7-13.6-12.1-19c-1.5-1.6-4.8,0.1-3.9,2.3c0,0,0,0.1,0.1,0.1c-0.5,2.5-0.4,5.1-0.5,7.7 c-0.1,3.7-0.1,7.5,0,11.2c0.2,7.2,0.5,14.4,0.9,21.5c-0.5,3.6,6.4,4.7,6.2,0.2c-0.3-7.5-0.8-15-1.5-22.4c-0.3-3.2-0.6-6.3-1-9.5 c1.8,3.4,3.7,6.8,5.4,10.2c3.2,6.7,5.8,13.6,8.7,20.5c1.3,3.2,6.8,3.3,6.6-0.9c-0.2-7.2,0-14.4-0.6-21.7 C483.4,326.2,482.4,319.2,481.1,312.2z M452.4,354.9c-1.1-0.8-2.5-1-3.8-0.9c0.2-1.7-0.1-3.4-0.2-5.3c-0.3-3.9-0.5-7.7-0.8-11.6 c-0.2-3.6-0.4-7.3-0.7-10.9c-0.1-1.8-0.1-3.9-0.3-5.9c0.9,0,1.8,0,2.7,0c4.1,0.1,4-6.6,0-6.3c-4.3,0.4-9.9,0-13.8,2.1 c-1,0.5-1.1,2.3,0,2.8c1.6,0.7,3.4,1.1,5.3,1.2c-0.1,1.8,0.1,3.7,0.2,5.3c0.1,3.9,0.3,7.7,0.4,11.6c0.1,3.6,0.3,7.3,0.4,10.9 c0.1,2.2-0.2,4.6,0.4,6.6c-1.3,0.2-2.6,0.5-3.9,0.9c-1.2,0.3-1.1,2,0,2.3c2.4,0.8,4.6,1.3,7.1,1.6c2.4,0.3,4.9,1.1,7.1-0.3 C454,358.1,453.9,356,452.4,354.9z"></path>
            </svg>